<svg id="Layer_1" data-name="Layer 1" xmlns="http://www.w3.org/2000/svg" viewBox="0 0 122.88 122.88"><defs><style>.cls-1{fill:#fff;}.cls-2{fill-rule:evenodd;}.cls-3{fill:#d92d27;}</style></defs><title>no-car</title><path class="cls-1" d="M24,29.38,93.49,98.92A49.31,49.31,0,0,1,24,29.38ZM101.68,90,32.92,21.2A49.24,49.24,0,0,1,96.3,26.57a49,49,0,0,1,14.45,34.87h0A49.12,49.12,0,0,1,101.68,90Z"/><path class="cls-2" d="M32.39,59.64c-5.81-3-5.13-6.32.69-6l1.33,2.48,2.65-12.44c.87-2.77,2.24-5.35,4.66-6.11,0-.24,36.38-.84,39.92-.23,3.45,0,5.44,3,6.27,6.35l2,12.18,1.16-2.21c6-.36,6.53,3.17.19,6.22l1,1.6c4.17,4.34,3.78,8.68,3.13,19.39v3.53a2,2,0,0,1-2,2H85.11a2,2,0,0,1-2-2V82.82H39.7v1.61a2,2,0,0,1-2,2H29.4a2,2,0,0,1-2-2v-4.6a.81.81,0,0,1,0-.16s0-.1,0-.15c-.61-8.22-1.51-15.64,4.95-19.88ZM78.28,40.7H44.48c-2.64,0-4,2.31-4.75,4.85L37.18,58H87l-2-12.49c-.53-2.59-2.15-4.82-4.76-4.82ZM43.07,69.39l-7.43-.94c-1.75-.2-2.22.53-1.63,2.08l.81,2a2.63,2.63,0,0,0,1,1.14,3.24,3.24,0,0,0,1.66.46l6.63.06c1.58,0,2.29-.66,1.79-2.14a3.27,3.27,0,0,0-2.83-2.63ZM82.62,72l7.43-1c1.76-.2,2.23.53,1.63,2.08l-.8,2a2.76,2.76,0,0,1-1,1.13,3.15,3.15,0,0,1-1.66.46l-6.63.06c-1.58,0-2.29-.65-1.79-2.14A3.26,3.26,0,0,1,82.62,72Z"/><path class="cls-3" d="M61.44,122.88A61.31,61.31,0,1,0,38,118.22a61.29,61.29,0,0,0,23.49,4.66ZM101.68,90,32.93,21.2a49.44,49.44,0,0,1,47.38-5.34A49.53,49.53,0,0,1,107,42.58a49,49,0,0,1,3.73,18.86h0A48.93,48.93,0,0,1,101.68,90ZM24,29.38,93.5,98.92A49.32,49.32,0,0,1,24,29.38Z"/></svg>