<svg xmlns="http://www.w3.org/2000/svg" viewBox="0 0 500 500">
    <path fill="#ed1c24"
        d="M501 232c0 13.02 0 26.042-.378 39.695-3.412 16.62-5.297 32.93-9.669 48.544-26.265 93.807-107.2 164.23-203.59 177.95-5.803.826-11.576 1.87-17.363 2.811-13.02 0-26.042 0-39.708-.375-9.37-1.638-18.165-2.536-26.806-4.226-44.934-8.79-84.692-28.312-118.747-58.902C40 397.309 12.94 347.378 3.79 287.842 2.973 282.544 1.934 277.28 1 272c0-13.688 0-27.375.378-41.695 1.183-6.902 1.751-13.214 2.83-19.436C15.61 145.11 47.738 91.714 100.805 51.324c32.008-24.36 68.033-40.113 107.917-46.583C216.155 3.536 223.574 2.25 231 1c12.688 0 25.375 0 38.718.38 25.827 2.506 50.36 7.506 73.656 17.49 86.945 37.265 138.746 102.415 154.874 195.743.999 5.782 1.838 11.59 2.752 17.387m-327.433-27.853L71.598 115.854C4.434 201.62 6.832 342.128 109.272 425.46c99.591 81.016 232.614 56.977 301.286-16.774-6.41-5.558-12.777-11.15-19.224-16.652-10.247-8.745-20.546-17.429-31.222-26.717-.97-.913-1.907-1.863-2.914-2.732-48.028-41.494-96.047-82.999-144.106-124.458-12.979-11.197-26.078-22.255-39.525-33.981m-9.413-48.508c1.915 1.847 3.746 3.79 5.755 5.527a284384.725 284384.725 0 00176.54 152.427c2.352 2.03 5.013 3.703 7.936 6.058 1.62 1.662 3.128 3.453 4.875 4.968a41278.733 41278.733 0 0060.471 52.279c3.586 3.096 7.216 6.14 10.835 9.214 70.07-91.15 61.677-233.335-43.067-313.732C288.39-3.694 158.977 20.76 91.504 93.206c1.083 1.005 2.136 2.047 3.255 3.013 18.524 16.002 37.03 32.025 55.606 47.966 4.378 3.757 8.996 7.234 13.79 11.454z" />
    <path fill="#fff"
        d="M163.869 155.024c-4.508-3.605-9.126-7.082-13.504-10.839-18.576-15.941-37.082-31.964-55.606-47.966-1.119-.966-2.172-2.008-3.255-3.013 67.473-72.445 196.885-96.9 295.995-20.826 104.744 80.397 113.136 222.581 43.067 313.732-3.619-3.075-7.25-6.118-10.835-9.214a41278.733 41278.733 0 01-60.47-52.28c-1.748-1.514-3.256-3.305-5.004-5.593-6.522-9.603-12.883-18.603-19.323-27.546-3.26-4.526-6.66-8.95-9.844-13.597.154-.178.4-.58.772-.496 6.475 1.644 12.518 3.513 18.696 4.671 5.491 1.03 8.716-1.123 10.252-6.337 2.862-9.712 5.71-19.438 8.179-29.255 5.668-22.53 7.256-45.6 9.23-68.662.918-10.703.573-20.879-3.241-30.862-1.064-2.783-1.613-5.9-6.197-5.793-2.403.057-5.896-1.82-7.127-3.882-5.945-9.955-11.453-20.187-16.73-30.517-1.285-2.516-2.49-2.787-4.582-1.887-10.307 4.431-18.705 11.361-25.545 20.143-.802 1.03-.87 3.93-.063 4.715 7.725 7.527 15.786 14.71 23.554 22.194 1.37 1.32 2.474 3.541 2.595 5.418.362 5.619 2.677 9.612 7.494 12.666 7.952 5.041 9.967 10.343 8.036 19.519-1.368 6.504-3.208 12.928-4.235 19.483-1.86 11.883-8.146 21.563-14.428 31.738-3.363-2.956-6.414-5.515-9.33-8.221-11.444-10.621-23.286-20.864-34.115-32.083-7.619-7.894-14.99-15.472-25.893-18.667-1.8-.528-3.987-2.48-4.483-4.208-1.535-5.346-3.169-10.894-3.223-16.38-.072-7.194 3.774-11.303 10.818-13.022 4.497-1.097 9.172-1.48 13.776-2.126 4.343-.61 6.361-2.653 5.845-7.404-.29-2.657.766-5.46 1.215-8.198l.692.142c-.235-3.148-.47-6.297-.729-9.743.3-.245.756-.749 1.318-1.059 7.958-4.392 7.967-4.39 2.203-11.846-3.53-4.567-5.655-9.322-5.54-15.5.363-19.612-14.277-40.995-36.625-42.963-6.773-.597-13.7-.818-20.444-.121-17.32 1.788-24.6 8.326-29.279 25.07-.25.894-.628 1.753-.937 2.6-10.697-3.098-21.271 1.137-28.73 11.594-8.238 11.549-10.59 24.603-8.803 38.438 1.209 9.36 2.905 18.658 4.383 27.983zM360.511 365.896c10.277 8.71 20.576 17.394 30.823 26.139 6.447 5.501 12.815 11.094 19.224 16.652-68.672 73.751-201.695 97.79-301.286 16.774C6.832 342.128 4.434 201.621 71.598 115.854c33.998 29.438 67.983 58.865 101.848 88.835-6.829 9.235-13.629 17.858-20.224 26.634-9.61 12.788-18.27 26.127-23.562 41.402-1.157 3.34-.905 5.84 1.743 8.473 16.133 16.042 36.587 23.644 57.78 29.753 7.952 2.292 16.15 3.742 24.074 6.114 6.11 1.828 9.682 6.558 8.57 12.912-1.184 6.749-3.07 13.552-5.853 19.795-2.886 6.47-7.292 12.254-10.898 18.417-5.51 9.414-6.99 19.587-5.486 30.308 2.019 14.398 7.711 27.371 14.948 39.828 2.755 4.741 4.862 9.858 7.565 15.42h114.176l-22.081-39.774c7.127-4.87 14.505-9.38 21.285-14.662 11.313-8.814 20.57-19.368 25.028-33.413z" />
    <path
        d="M360.311 365.607c-4.258 14.334-13.515 24.888-24.828 33.702-6.78 5.281-14.158 9.792-21.285 14.662l22.081 39.775H222.103c-2.703-5.563-4.81-10.68-7.565-15.421-7.237-12.457-12.93-25.43-14.948-39.828-1.503-10.721-.024-20.894 5.486-30.308 3.606-6.163 8.012-11.946 10.898-18.417 2.784-6.243 4.67-13.046 5.852-19.795 1.113-6.354-2.458-11.084-8.569-12.912-7.924-2.372-16.122-3.822-24.074-6.114-21.193-6.109-41.647-13.711-57.78-29.753-2.648-2.633-2.9-5.134-1.743-8.473 5.292-15.275 13.953-28.614 23.562-41.402 6.595-8.776 13.395-17.4 20.426-26.332 13.366 10.882 26.465 21.94 39.444 33.137 48.059 41.46 96.078 82.964 144.106 124.458 1.007.87 1.944 1.82 3.113 3.021M173.315 268.65c.854.47 1.661 1.073 2.568 1.392 10.729 3.777 20.906 8.45 29.45 16.274 3.306 3.028 7.255 5.355 11.65 8.537-1.07-19.219-8.207-34.535-19.136-48.288-8.265 7.361-16.204 14.433-24.532 22.085zM324.936 278.06c3.337 4.47 6.739 8.893 9.998 13.42 6.44 8.942 12.8 17.942 19.12 27.287-2.592-1.471-5.253-3.144-7.606-5.174A284384.725 284384.725 0 01169.91 161.166c-2.01-1.737-3.84-3.68-5.897-5.834-1.621-9.633-3.317-18.93-4.526-28.29-1.788-13.836.565-26.89 8.802-38.439 7.46-10.457 18.034-14.692 28.73-11.594.31-.847.688-1.706.938-2.6 4.68-16.744 11.958-23.282 29.279-25.07 6.744-.697 13.67-.476 20.444.12 22.348 1.969 36.988 23.352 36.625 42.964-.115 6.178 2.01 10.933 5.54 15.5 5.764 7.456 5.755 7.454-2.203 11.846-.562.31-1.018.814-1.318 1.06l.73 9.742-.693-.142c-.45 2.738-1.504 5.54-1.215 8.198.516 4.75-1.502 6.795-5.845 7.404-4.604.646-9.279 1.029-13.776 2.126-7.044 1.72-10.89 5.828-10.818 13.023.054 5.485 1.688 11.033 3.223 16.38.496 1.727 2.682 3.68 4.483 4.207 10.902 3.195 18.274 10.773 25.893 18.667 10.829 11.219 22.67 21.462 34.116 32.083 2.915 2.706 5.966 5.265 9.329 8.22 6.282-10.174 12.567-19.854 14.428-31.737 1.027-6.555 2.867-12.979 4.235-19.483 1.93-9.176-.084-14.478-8.036-19.52-4.817-3.053-7.132-7.046-7.494-12.665-.121-1.877-1.225-4.098-2.595-5.418-7.768-7.485-15.829-14.667-23.554-22.194-.806-.786-.74-3.684.063-4.715 6.84-8.782 15.238-15.712 25.545-20.143 2.092-.9 3.297-.629 4.582 1.887 5.277 10.33 10.785 20.562 16.73 30.517 1.231 2.061 4.724 3.939 7.127 3.882 4.584-.108 5.133 3.01 6.197 5.793 3.814 9.983 4.159 20.16 3.242 30.862-1.975 23.061-3.563 46.131-9.231 68.662-2.47 9.817-5.317 19.543-8.179 29.255-1.536 5.214-4.76 7.366-10.252 6.337-6.178-1.158-12.221-3.027-18.932-4.787-.85-.13-1.092-.06-1.333.01l.643.78M201.913 126.23c-.438.675-1.384 1.496-1.238 2.004 2.867 9.983 5.862 19.93 8.826 29.871 6.832-3.152 10.036-17.276 5.018-22.763-.74-.809-1.92-1.2-2.84-1.861a397.283 397.283 0 01-9.766-7.25m123.168-13.66l-15.518 13.878c8.734-.629 24.433-13.527 26.209-20.452-3.718 2.245-6.925 4.181-10.69 6.574z" />
    <path fill="#fff"
        d="M173.51 268.359c8.133-7.362 16.072-14.434 24.337-21.795 10.929 13.753 18.066 29.07 19.137 48.288-4.396-3.182-8.345-5.51-11.652-8.537-8.543-7.824-18.72-12.497-29.449-16.274-.907-.319-1.714-.921-2.374-1.682zM202.187 126.494a601.258 601.258 0 009.493 6.987c.92.662 2.1 1.052 2.839 1.86 5.018 5.488 1.814 19.612-5.018 22.764-2.964-9.94-5.959-19.888-8.826-29.871-.146-.508.8-1.329 1.512-1.74zM325.36 112.343c3.487-2.165 6.694-4.101 10.412-6.346-1.776 6.925-17.475 19.823-26.209 20.452a9528.131 9528.131 0 0115.798-14.106z" />
</svg>
