<svg xmlns="http://www.w3.org/2000/svg" viewBox="0 0 500 500">
    <path fill="#FD0C0C"
        d="M270 501c-12.688 0-25.375 0-38.716-.37-18.106-3.688-36.223-5.032-52.903-10.646-97.528-32.82-155.894-100.182-174.52-201.613C2.801 282.601 1.95 276.791 1 271c0-13.354 0-26.708.37-40.707 2.79-23.906 7.08-46.812 16.114-68.453C55.674 70.347 123.718 17.037 222.048 2.77c3.333-.484 6.635-1.175 9.952-1.77 13.02 0 26.042 0 39.714.371 11.175 1.965 21.826 2.981 32.202 5.255 40.021 8.77 76.059 26.058 107.333 52.594 47.959 40.694 77.126 92.137 86.879 154.419.907 5.795 1.912 11.574 2.872 17.361 0 13.02 0 26.042-.37 39.716-1.592 9.553-2.378 18.536-4.1 27.337-20.516 104.879-103.308 184.22-208.657 200.152-5.962.902-11.916 1.862-17.873 2.795m-80.64-285.168c-10.123-8.69-20.246-17.379-30.712-26.616l-86.34-74.172c-66.62 83.42-65.69 221.749 31.48 305.842 97.802 84.64 235.059 65.376 308.953-14.198-1.146-.877-2.363-1.719-3.481-2.676-21.382-18.313-42.73-36.663-64.13-54.953-15.95-13.632-31.962-27.188-48.283-41.275-8.92-7.705-17.803-15.454-26.77-23.106-18.692-15.954-37.429-31.856-56.407-48.38-7.961-6.65-15.923-13.3-24.31-20.466m47.346 1.895c8.947 7.714 17.863 15.465 26.848 23.134 16.32 13.93 32.683 27.812 49.433 42.22 24.106 20.738 48.202 41.488 72.32 62.213 15.37 13.208 30.77 26.38 46.17 39.581 68.227-90.018 61.376-231.422-43.9-312.43-98.763-75.995-228.225-51.91-296.04 20.701 1.083 1.006 2.133 2.05 3.254 3.011 26.8 22.985 53.592 45.977 80.428 68.918 3.634 3.106 7.49 5.95 11.349 9.642 4.109 3.45 8.219 6.902 12.641 10.95 3.016 2.602 6.004 5.239 9.054 7.8 9.385 7.879 18.795 15.73 28.443 24.26z" />
    <path
        d="M297.015 308.032c-6.31 14.662-8.973 29.681-7.175 45.455.648 5.685 2.925 10.397 6.948 14.509 15.278 15.614 25.774 33.74 28.654 55.75.038.296-.051.608-.212 2.25-6.437 0-13.008-.004-19.579.001-30.15.027-60.301.197-90.45.041-24.438-.127-43.352-17.359-47.218-42.384-3.292-21.318 2.102-40.506 13.934-58.173 1.187-1.773 2.453-3.494 3.474-4.944l-48.938-35.143c-.556.712-1.17 1.588-1.874 2.383-2.942 3.319-5.672 4.296-9.662.841-7.023-6.079-14.577-11.543-21.89-17.29-5.066-3.98-5.274-5.394-1.324-10.483 6.824-8.793 13.713-17.536 20.583-26.293 9.948-12.68 19.867-25.38 29.887-38.002 1.85-2.33 4.12-4.326 6.507-6.631 10.434 8.534 20.557 17.224 30.635 26.514-1.508 2.808-2.833 5.12-4.454 7.203-9.275 11.916-18.62 23.776-28.08 35.832l22.542 10.49c2.501-8.269 8.197-13.493 14.598-18.17 6.712-4.905 13.342-9.921 20.008-14.89 18.719 15.924 37.456 31.826 56.149 47.78 8.966 7.652 17.848 15.4 26.937 23.354zm-60.433-90.64c5.965-6.49 12.173-12.537 18.057-18.885 1.369-1.476 2.603-4.174 2.237-5.97-1.554-7.611-3.54-15.156-5.86-22.57-.434-1.387-3.052-2.755-4.791-2.944-5.276-.572-10.615-.556-15.929-.78-4.163-.175-5.499-2.652-5.985-6.505-.849-6.714-1.63-13.535-3.578-19.966-.793-2.615-4.564-4.327-7.62-7.013 9.64-8.424 10.121-19.775 9.887-31.957-.107-5.593 3.786-11.362 6.267-16.87 1.413-3.137 3.187-6.368 5.603-8.736 3.32-3.252 7.025-7.105 11.234-8.26 10.16-2.788 20.65-4.606 31.116-5.983 11.25-1.479 19.896 4.012 26.967 12.264 2.814 3.283 5.29 6.855 8.1 10.14 4.044 4.723 7.181 5.702 12.63 2.874 6.924-3.593 12.817-1.404 19.314 2.186l-2.383 1.864c2.46 4.723 5.152 9.272 7.244 14.082 2.244 5.16 1.544 9.963-1.482 15.107-3.237 5.5-5.56 11.738-7.073 17.949-.558 2.287 2.335 5.415 3.892 8.654-2.687 1.148-.861 3.538-.361 6.44 1.724 10.007 5.218 18.998 11.796 26.823.865 1.028.47 3.115.829 6.149l-7.899-6.732-2.372 11.836-1.469.181-4.776-17.664-4.9 3.426 1.85-12.26-1.825-.848c-2.19 3.466-4.712 6.772-6.477 10.442-1.784 3.71-4.156 5.594-8.343 5.75-1.93.071-3.814 1.365-5.988 2.21l-1.264-8.134c-3.087 2.861-3.58 3.737-1.268 7.384 5.33 8.407 10.65 16.895 16.83 24.669 6.883 8.656 11.57 18.127 14.341 28.724 2.08 7.957-.714 15.032-5.367 20.73-7.663 9.387-16.423 17.88-24.953 27.062-16.576-13.588-32.938-27.47-49.259-41.4-8.985-7.67-17.9-15.42-26.972-23.469m78.35-102.997c-1.594 8.633-5.097 16.28-10.382 23.41-2.26 3.048-2.955 7.627-3.329 11.607-.47 5.007.539 5.42 6.322 3.82l-3.461-2.805c2.68-2.065 5.142-3.934 7.57-5.846.886-.698 2.234-1.368 2.448-2.27 1.698-7.15 3.337-14.323 4.624-21.555.42-2.358.137-5.025-.532-7.347-.85-2.947-2.153-1.638-3.26.986zM186.515 174.354c5.564-7.365 11.205-14.347 16.784-21.379 2.276-2.868 4.452-4.195 7.615-.945 2.067 2.123 4.63 3.762 7.732 6.22a9599.473 9599.473 0 00-19.577 26.521c-4.282-3.152-8.392-6.603-12.554-10.417z" />
</svg>
