<svg xmlns="http://www.w3.org/2000/svg" viewBox="0 0 500 500">
    <path fill="#ed1c24"
        d="M1 272c0-13.688 0-27.375.37-41.715 2.357-19.898 5.412-39.024 12.057-57.2C48.17 78.068 115.14 21.185 215.122 3.763 220.738 2.784 226.374 1.918 232 1c12.354 0 24.708 0 37.725.375 32.673 2.958 63.368 10.68 91.89 25.536 76.573 39.883 122.49 102.294 136.65 187.718.905 5.458 1.823 10.914 2.735 16.371 0 13.354 0 26.708-.373 40.702-2.194 12.139-3.38 23.781-5.938 35.113-22.612 100.146-105.088 176.135-207.342 191.379-5.793.863-11.565 1.867-17.347 2.806-12.688 0-25.375 0-38.71-.375-5.61-.9-10.607-1.214-15.534-1.978-55.896-8.67-104.125-32.634-143.665-73.213-37.469-38.454-60.295-84.38-68.273-137.581C3.022 282.547 1.946 277.283 1 272m163.283-118.519c6.808 5.881 13.603 11.777 20.427 17.64 21.101 18.13 42.213 36.246 63.88 54.657 7.72 6.82 15.374 13.718 23.175 20.444 17.006 14.663 34.086 29.238 51.44 44.448 5.078 4.278 10.156 8.557 15.675 13.333 9.855 8.607 19.665 17.266 29.578 25.807 13.05 11.245 26.182 22.397 39.68 34.107L431.69 384.5c66.212-87.486 61.872-225.248-38.494-307.626-95.67-78.523-227.46-60.7-300.421 14.875 3.779 3.272 7.531 6.557 11.322 9.797 13.16 11.25 26.333 22.482 39.903 34.269 6.652 5.688 13.303 11.377 20.283 17.665m36.089 70.807c-16.477-14.13-32.954-28.26-49.826-43.014-6.806-5.79-13.611-11.581-20.746-17.958l-57-49.34C1.478 205.273 10.32 344.741 108.829 425.17c96.378 78.689 229.282 60.931 303.586-18.007-6.867-5.778-13.718-11.543-20.842-17.886-46.08-39.777-92.145-79.57-138.244-119.323-17.503-15.093-35.081-30.098-52.956-45.666z" />
    <path fill="#fff"
        d="M391.845 389.855l20.569 17.308C338.11 486.1 205.206 503.859 108.828 425.17 10.32 344.74 1.477 205.273 72.801 113.976c19.01 16.456 38.005 32.898 57.03 49.985-6.152 17.766-12.334 34.885-18.588 52.205-4.227 0-8.386-.142-12.531.03-8.058.335-13.922 4.081-16.946 11.702a153.292 153.292 0 00-4.104 11.749c-2.097 6.866.98 11.141 8.107 11.327 4.401.115 8.808.021 12.647.021-1.249 7.288-3.356 14.088-3.423 20.907-.34 34.642-.172 69.29-.136 103.935.01 9.519 4.603 14.124 14.022 14.152 13.658.04 27.316.04 40.975 0 9.413-.026 14.123-4.733 14.172-14.093.035-6.778.006-13.555.006-20.48h174.01c0 7.372-.102 14.5.027 21.626.141 7.837 5.055 12.87 12.81 12.919 13.654.085 27.31-.058 40.966-.106zM143.598 135.269c-13.168-11.24-26.342-22.473-39.501-33.722-3.791-3.24-7.543-6.525-11.322-9.797 72.96-75.574 204.751-93.398 300.421-14.875 100.366 82.378 104.706 220.14 38.494 307.626-7.869-6.877-15.71-13.73-23.705-21.347-.15-21.261.13-41.764-.231-62.257-.294-16.647 2.659-33.63-4.94-49.901 5.037 0 9.371.13 13.694-.032 5.767-.216 9.632-4.133 8.284-9.369-1.558-6.05-3.68-12.135-6.685-17.583-2.963-5.37-8.493-7.768-14.754-7.841-4.32-.051-8.64-.01-13.024-.01-.567-1.438-1.073-2.648-1.525-3.88-7.897-21.505-15.955-42.954-23.608-64.547-3.807-10.738-10.876-18.03-21.01-22.741-15.79-7.341-32.564-10.217-49.782-11.333-35.973-2.332-71.952-3.33-107.675 2.511-15.831 2.588-30.943 7.8-43.131 19.098z" />
    <path
        d="M391.708 389.566c-13.518.337-27.175.48-40.83.395-7.754-.048-12.668-5.082-12.81-12.92-.128-7.124-.027-14.253-.027-21.625H164.032c0 6.925.029 13.702-.006 20.48-.049 9.36-4.759 14.067-14.172 14.094-13.659.038-27.317.04-40.975-.001-9.42-.028-14.012-4.633-14.022-14.152-.036-34.646-.204-69.293.136-103.935.067-6.82 2.174-13.619 3.423-20.907-3.84 0-8.246.094-12.647-.021-7.126-.186-10.204-4.461-8.107-11.327a153.292 153.292 0 014.104-11.749c3.024-7.62 8.888-11.367 16.946-11.702 4.145-.172 8.304-.03 12.53-.03 6.255-17.32 12.437-34.44 18.754-51.912 6.939 5.439 13.744 11.23 20.48 17.654-4.415 13.243-8.76 25.853-13.588 39.865l63.815 3.038c17.544 15.045 35.122 30.05 52.625 45.143 46.099 39.754 92.165 79.546 138.38 119.612M112.18 279.722v5.99c0 9.419 2.452 11.226 11.839 9.691 12.3-2.01 24.7-4.296 35.26 5.568 5.615 5.245 12.01 3.634 18.14.998 3.84-1.651 5.346-5.195 4.531-9.069-1.289-6.127-4.364-10.826-10.995-12.87-7.734-2.383-15.228-5.536-22.851-8.285-5.14-1.854-10.225-3.99-15.508-5.292-13.317-3.284-19.648.703-20.416 13.27zM143.799 135.542c11.987-11.572 27.099-16.783 42.93-19.371 35.723-5.84 71.702-4.843 107.675-2.511 17.218 1.116 33.992 3.992 49.782 11.333 10.134 4.712 17.203 12.003 21.01 22.741 7.653 21.593 15.711 43.042 23.608 64.548.452 1.23.958 2.441 1.525 3.879 4.384 0 8.704-.041 13.024.01 6.261.073 11.79 2.47 14.754 7.841 3.005 5.448 5.127 11.533 6.685 17.583 1.348 5.236-2.517 9.153-8.284 9.369-4.323.161-8.657.032-13.693.032 7.598 16.272 4.645 33.254 4.939 49.901.361 20.493.081 40.996.031 61.998-13.145-10.688-26.276-21.84-39.327-33.085-9.913-8.54-19.723-17.2-29.456-26.28 9.295-8.336 19.898-10.529 31.639-8.657a87.133 87.133 0 0012.357 1.065c4.614.07 7.045-2.458 7.137-6.984.082-3.985.1-7.978-.066-11.96-.321-7.729-3.261-10.468-11.09-11.083-8.963-.705-16.887 2.732-24.907 5.866-5.374 2.1-10.76 4.171-16.076 6.41-2.8 1.18-5.781 2.292-8.094 4.16-2.67 2.158-4.696 5.115-7.001 7.724-17.05-14.61-34.13-29.186-51.136-43.85-7.8-6.725-15.454-13.623-22.988-20.59 38.57-.081 76.942-.28 115.307-4.35-6.342-25.4-16.755-48.34-28.783-70.585-1.283-2.373-3.872-5.077-6.301-5.615-10.834-2.4-21.775-5.253-32.778-5.759a1187.542 1187.542 0 00-73.902-1.11c-15.088.248-30.165 2.325-45.205 3.968-6.378.696-11.842 3.369-13.16 10.702-6.652-5.689-13.303-11.378-20.156-17.34z" />
    <path fill="#fff"
        d="M164.119 153.182c1.154-7.633 6.618-10.306 12.996-11.002 15.04-1.643 30.117-3.72 45.205-3.967 24.627-.404 49.299-.02 73.902 1.11 11.003.505 21.944 3.359 32.778 5.758 2.429.538 5.018 3.242 6.301 5.615 12.028 22.246 22.441 45.184 28.783 70.584-38.365 4.07-76.737 4.27-115.586 4.207-21.575-18.12-42.687-36.237-63.788-54.366a1749.434 1749.434 0 01-20.591-17.94zM323.053 290.37c2.153-2.908 4.178-5.865 6.849-8.023 2.313-1.868 5.295-2.98 8.094-4.16 5.315-2.239 10.702-4.31 16.076-6.41 8.02-3.134 15.944-6.57 24.906-5.866 7.83.615 10.77 3.354 11.091 11.084.166 3.98.148 7.974.066 11.959-.092 4.526-2.523 7.054-7.137 6.984a87.133 87.133 0 01-12.357-1.065c-11.741-1.872-22.344.32-31.86 8.408-5.42-4.054-10.498-8.333-15.728-12.91zM200.537 224.55c-20.639-.73-41.443-1.72-63.65-2.777 4.83-14.012 9.174-26.622 13.786-39.554 16.745 13.808 33.222 27.938 49.864 42.33zM112.18 279.263c.767-12.107 7.098-16.094 20.415-12.81 5.283 1.302 10.368 3.438 15.508 5.292 7.623 2.749 15.117 5.902 22.851 8.285 6.631 2.044 9.706 6.743 10.995 12.87.815 3.874-.691 7.418-4.531 9.07-6.13 2.635-12.525 4.246-18.14-.999-10.56-9.864-22.96-7.578-35.26-5.568-9.387 1.535-11.839-.272-11.839-9.691v-6.45z" />
</svg>
