<?xml version="1.0" encoding="UTF-8" standalone="no"?>
<svg
   xmlns:dc="http://purl.org/dc/elements/1.1/"
   xmlns:cc="http://creativecommons.org/ns#"
   xmlns:rdf="http://www.w3.org/1999/02/22-rdf-syntax-ns#"
   xmlns:svg="http://www.w3.org/2000/svg"
   xmlns="http://www.w3.org/2000/svg"
   viewBox="0 0 578.66669 577.33331"
   height="577.33331"
   width="578.66669"
   xml:space="preserve"
   id="svg2"
   version="1.1">
    <metadata id="metadata8">
		<rdf:RDF>
			<cc:Work rdf:about="">
				<dc:format>image/svg+xml</dc:format>
				<dc:type rdf:resource="http://purl.org/dc/dcmitype/StillImage" />
			</cc:Work>
		</rdf:RDF>
	</metadata>
	<defs id="defs6" />
	<g transform="matrix(1.3333333,0,0,-1.3333333,0,577.33333)" id="g10">
		<g transform="scale(0.1)" id="g12">
			<path id="path16" style="fill:#ffffff;stroke:#000000;stroke-width:5.00029993;stroke-linecap:round;stroke-linejoin:round;stroke-miterlimit:2.61313009;stroke-dasharray:none;stroke-opacity:1"
				  d="m 2170.93,4325.05 c 1192.93,0 2160,-967.06 2160,-2160 C 4330.93,972.121 3363.86,5.05469 2170.93,5.05469 977.992,5.05469 10.9297,972.121 10.9297,2165.05 c 0,1192.94 967.0623,2160 2160.0003,2160 z m 0,-567.92 c 879.27,0 1592.07,-712.8 1592.07,-1592.08 0,-879.27 -712.8,-1592.062 -1592.07,-1592.062 -879.28,0 -1592.071,712.792 -1592.071,1592.062 0,879.28 712.791,1592.08 1592.071,1592.08 z" />
			<path id="path14" style="fill:#ed1c24;fill-opacity:1;fill-rule:evenodd;stroke:none"
				  d="m 2170.93,4325.05 c 1192.93,0 2160,-967.06 2160,-2160 C 4330.93,972.121 3363.86,5.05469 2170.93,5.05469 977.992,5.05469 10.9297,972.121 10.9297,2165.05 c 0,1192.94 967.0623,2160 2160.0003,2160 z m 0,-567.92 c 879.27,0 1592.07,-712.8 1592.07,-1592.08 0,-879.27 -712.8,-1592.062 -1592.07,-1592.062 -879.28,0 -1592.071,712.792 -1592.071,1592.062 0,879.28 712.791,1592.08 1592.071,1592.08" />
			<path id="path18" style="fill:#000000;fill-opacity:1;fill-rule:nonzero;stroke:none"
				  d="m 1836.34,1389.96 h -639.93 v 254.15 h 180.39 v 1146.38 h -180.39 v 251.45 h 457.63 V 1644.11 h 182.3 z m 859.26,1357.27 v -261.36 c 0,-137.89 -45.89,-228.01 -137.99,-269.02 v -1.35 c 92.1,-37.86 137.99,-128.43 137.99,-270.83 v -281.19 c 0,-84.71 -20.89,-151.4 -62.98,-200.07 -42.1,-49.12 -99.69,-73.45 -172.8,-73.45 h -318.39 c -73.11,0 -130.71,24.33 -172.8,73.45 -42.09,48.67 -62.98,115.36 -62.98,200.07 v 281.19 c 0,142.4 45.89,232.97 137.36,270.83 v 1.35 c -91.47,41.01 -137.36,131.13 -137.36,269.02 v 261.36 c 0,196.47 75.01,294.71 224.7,294.71 h 340.54 c 149.7,0 224.71,-98.24 224.71,-294.71 z m -277.24,-231.62 v 197.37 c 0,51.82 -14.88,77.51 -44.31,77.51 H 2227.2 c -29.43,0 -44.31,-25.69 -44.31,-77.51 v -197.37 c 0,-114 31.97,-171.23 95.9,-171.23 h 43.67 c 63.93,0 95.9,57.23 95.9,171.23 z m 0,-796.25 v 210.44 c 0,106.8 -31.97,160.42 -95.9,160.42 h -43.67 c -63.93,0 -95.9,-53.62 -95.9,-160.42 v -210.44 c 0,-50.02 16.14,-75.25 48.11,-75.25 h 139.25 c 31.96,0 48.11,25.23 48.11,75.25 z m 1029.53,395.2 h -214.58 v -305.52 h -148.12 v 305.52 h -214.57 v 210.89 h 214.57 v 305.52 h 148.12 v -305.52 h 214.58 v -210.89" />
		</g>
	</g>
</svg>
