<svg xmlns="http://www.w3.org/2000/svg" viewBox="0 0 500 500">
    <path fill="#FD0C0C"
        d="M270 501c-13.02 0-26.042 0-39.705-.377-42.419-4.517-81.329-17.12-116.273-40.64-61.534-41.417-98.434-98.77-110.197-172.14C2.975 282.547 1.945 277.28 1 272c0-13.688 0-27.375.378-41.695 1.183-6.902 1.751-13.214 2.83-19.437C15.61 145.11 47.738 91.714 100.805 51.324 132.813 26.963 168.838 11.21 208.722 4.74 216.155 3.535 223.574 2.249 231 1c12.688 0 25.375 0 38.728.368 36.254 3.426 70.07 12.708 101.185 30.429 71.425 40.678 114.08 101.58 127.359 182.852.89 5.453 1.818 10.9 2.728 16.351 0 13.02 0 26.042-.374 39.72-1.2 7.429-1.717 14.255-2.903 20.963-10.528 59.52-38.158 109.48-84.07 149.01-36.605 31.517-78.908 50.668-126.76 57.512-5.65.807-11.263 1.857-16.893 2.795m-5.238-220.583c-8.916-7.527-17.831-15.054-27.027-23.176-19.205-16.402-38.409-32.804-57.968-49.787-5.028-4.357-10.02-8.756-15.09-13.064-12.157-10.333-24.352-20.624-36.886-31.452l-55.41-47.999C5.666 198.555 5.05 339.991 108.728 425.003c99.494 81.58 233.918 57.97 303.463-17.903-3.778-3.256-7.538-6.524-11.327-9.758-17.225-14.703-34.459-29.396-52.07-44.563-12.522-10.675-25.043-21.349-37.95-32.568-15.25-13.067-30.502-26.135-46.082-39.794m78.28 27.551c11.768 10.044 23.536 20.088 35.685 30.74l53.603 46.134c45.072-66.052 57.856-136.909 29.304-211.342C427.6 84.782 360.965 35.027 266.016 26.941c-67.544-5.752-125.372 18.26-174.46 65.153 20.453 17.451 40.213 34.31 60.354 51.601 9.323 8.003 18.646 16.005 28.42 24.545 14.158 12.067 28.315 24.135 42.86 36.696 13.423 11.62 26.807 23.284 40.283 34.842 10.317 8.849 20.75 17.563 31.441 26.962 15.902 13.577 31.804 27.154 48.128 41.228z" />
    <path
        d="M222.996 204.69c-.788-12.36.097-24.167 6.572-34.915 9.28-15.405 23.729-23.565 40.484-27.64 22.64-5.506 45.569-5.894 68.264-.16 17.042 4.304 32.083 12.211 41.388 27.996 10.942 18.562 9.644 50.339-8.223 64.212-6.996 5.432-14.974 8.43-23.554 10.186-1.99.407-5.202.393-3.397 4.236 21.769 3.326 40.365 11.73 47.174 34.69 5.96 20.098 2.82 38.878-13.095 54.542-12.031-9.781-23.8-19.825-35.518-30.418 1.353-3.014 3.113-5.346 3.883-7.968 3.818-13.012-3.35-25.606-17.406-30.364-11.36-3.844-23.07-4.796-34.963-2.971-10.382-8.775-20.815-17.489-31.132-26.338-13.476-11.558-26.86-23.223-40.477-35.089m116.058-3.872c-.4-7.11-3.667-12.684-9.322-16.83-13.721-10.06-28.692-9.474-43.672-4.04-11.535 4.186-16.852 13.863-15.78 26.016 1.083 12.27 7.757 20.49 19.87 23.007 6.748 1.402 13.902 2.523 20.671 1.821 16.223-1.682 29.788-9.769 28.233-29.974zM179.944 207.744c.133 47.09.087 93.89.043 140.689-.002 1.788 0 3.576 0 5.546h-46.202V209.683h-30.704v-39.205c8.278-2.235 16.337-4.411 24.73-6.804 12.514 10.092 24.709 20.383 36.867 30.716 5.069 4.308 10.061 8.707 15.266 13.354zM348.984 353.014c-19.346 6.37-39.42 6.77-59.574 5.45-16.187-1.06-31.837-4.436-46.448-11.98-36.976-19.093-35.545-70.604-5.26-88.498 9.229 7.377 18.144 14.904 27.073 23.068-5.517 12.289-2.246 24.422 8.393 31.57 11.595 7.792 24.611 8.994 38.062 8.132 12.521 10.674 25.042 21.348 37.754 32.258zM151.72 143.48c9.044-.217 18.28-.217 28.254-.217 0 7.872 0 15.714-.048 23.998-9.37-7.56-18.693-15.563-28.207-23.782z" />
</svg>
