<svg xmlns="http://www.w3.org/2000/svg" viewBox="0 0 500 500">
    <path fill="#FD0C0C"
        d="M1 272c0-13.688 0-27.375.37-41.715 2.357-19.898 5.412-39.024 12.057-57.2C48.17 78.068 115.14 21.185 215.122 3.763 220.738 2.784 226.374 1.918 232 1c12.354 0 24.708 0 37.725.375 32.673 2.958 63.368 10.68 91.89 25.536 76.573 39.883 122.49 102.294 136.65 187.718.905 5.458 1.823 10.914 2.735 16.371 0 13.354 0 26.708-.373 40.702-2.194 12.139-3.38 23.781-5.938 35.113-22.612 100.146-105.088 176.135-207.342 191.379-5.793.863-11.565 1.867-17.347 2.806-12.688 0-25.375 0-38.71-.375-5.61-.9-10.607-1.214-15.534-1.978-55.896-8.67-104.125-32.634-143.665-73.213-37.469-38.454-60.295-84.38-68.273-137.581C3.022 282.547 1.946 277.283 1 272m163.283-118.519c6.808 5.881 13.603 11.777 20.427 17.64 21.101 18.13 42.213 36.246 63.88 54.657 7.72 6.82 15.374 13.718 23.175 20.444 17.006 14.663 34.086 29.238 51.44 44.448 5.078 4.278 10.156 8.557 15.675 13.333 9.855 8.607 19.665 17.266 29.578 25.807 13.05 11.245 26.182 22.397 39.68 34.107L431.69 384.5c66.212-87.486 61.872-225.248-38.494-307.626-95.67-78.523-227.46-60.7-300.421 14.875 3.779 3.272 7.531 6.557 11.322 9.797 13.16 11.25 26.333 22.482 39.903 34.269 6.652 5.688 13.303 11.377 20.283 17.665m36.089 70.807c-16.477-14.13-32.954-28.26-49.826-43.014-6.806-5.79-13.611-11.581-20.746-17.958l-57-49.34C1.478 205.273 10.32 344.741 108.829 425.17c96.378 78.689 229.282 60.931 303.586-18.007-6.867-5.778-13.718-11.543-20.842-17.886-46.08-39.777-92.145-79.57-138.244-119.323-17.503-15.093-35.081-30.098-52.956-45.666z" />
    <path
        d="M391.708 389.566c-13.518.337-27.175.48-40.83.395-7.754-.048-12.668-5.082-12.81-12.92-.128-7.124-.027-14.253-.027-21.625H164.032c0 6.925.029 13.702-.006 20.48-.049 9.36-4.759 14.067-14.172 14.094-13.659.038-27.317.04-40.975-.001-9.42-.028-14.012-4.633-14.022-14.152-.036-34.646-.204-69.293.136-103.935.067-6.82 2.174-13.619 3.423-20.907-3.84 0-8.246.094-12.647-.021-7.126-.186-10.204-4.461-8.107-11.327a153.292 153.292 0 014.104-11.749c3.024-7.62 8.888-11.367 16.946-11.702 4.145-.172 8.304-.03 12.53-.03 6.255-17.32 12.437-34.44 18.754-51.912 6.939 5.439 13.744 11.23 20.48 17.654-4.415 13.243-8.76 25.853-13.588 39.865l63.815 3.038c17.544 15.045 35.122 30.05 52.625 45.143 46.099 39.754 92.165 79.546 138.38 119.612M112.18 279.722v5.99c0 9.419 2.452 11.226 11.839 9.691 12.3-2.01 24.7-4.296 35.26 5.568 5.615 5.245 12.01 3.634 18.14.998 3.84-1.651 5.346-5.195 4.531-9.069-1.289-6.127-4.364-10.826-10.995-12.87-7.734-2.383-15.228-5.536-22.851-8.285-5.14-1.854-10.225-3.99-15.508-5.292-13.317-3.284-19.648.703-20.416 13.27zM143.799 135.542c11.987-11.572 27.099-16.783 42.93-19.371 35.723-5.84 71.702-4.843 107.675-2.511 17.218 1.116 33.992 3.992 49.782 11.333 10.134 4.712 17.203 12.003 21.01 22.741 7.653 21.593 15.711 43.042 23.608 64.548.452 1.23.958 2.441 1.525 3.879 4.384 0 8.704-.041 13.024.01 6.261.073 11.79 2.47 14.754 7.841 3.005 5.448 5.127 11.533 6.685 17.583 1.348 5.236-2.517 9.153-8.284 9.369-4.323.161-8.657.032-13.693.032 7.598 16.272 4.645 33.254 4.939 49.901.361 20.493.081 40.996.031 61.998-13.145-10.688-26.276-21.84-39.327-33.085-9.913-8.54-19.723-17.2-29.456-26.28 9.295-8.336 19.898-10.529 31.639-8.657a87.133 87.133 0 0012.357 1.065c4.614.07 7.045-2.458 7.137-6.984.082-3.985.1-7.978-.066-11.96-.321-7.729-3.261-10.468-11.09-11.083-8.963-.705-16.887 2.732-24.907 5.866-5.374 2.1-10.76 4.171-16.076 6.41-2.8 1.18-5.781 2.292-8.094 4.16-2.67 2.158-4.696 5.115-7.001 7.724-17.05-14.61-34.13-29.186-51.136-43.85-7.8-6.725-15.454-13.623-22.988-20.59 38.57-.081 76.942-.28 115.307-4.35-6.342-25.4-16.755-48.34-28.783-70.585-1.283-2.373-3.872-5.077-6.301-5.615-10.834-2.4-21.775-5.253-32.778-5.759a1187.542 1187.542 0 00-73.902-1.11c-15.088.248-30.165 2.325-45.205 3.968-6.378.696-11.842 3.369-13.16 10.702-6.652-5.689-13.303-11.378-20.156-17.34z" />
</svg>
