<?xml version="1.0" encoding="UTF-8" standalone="no"?>
<!-- Created with Inkscape (http://www.inkscape.org/) -->

<svg
   xmlns:dc="http://purl.org/dc/elements/1.1/"
   xmlns:cc="http://creativecommons.org/ns#"
   xmlns:rdf="http://www.w3.org/1999/02/22-rdf-syntax-ns#"
   xmlns:svg="http://www.w3.org/2000/svg"
   xmlns="http://www.w3.org/2000/svg"
   version="1.0"
   width="280.28375"
   height="283.75751"
   id="svg3511">
  <defs
     id="defs3513">
    <clipPath
       id="clipPath3475">
      <path
         d="m 91.1329,33.0117 216.7976,0 0,216.7993 -216.7976,0"
         id="path3477" />
    </clipPath>
    <clipPath
       id="clipPath3467">
      <path
         d="m 86.0394,29.3103 227.006,0 0,224.227 -227.006,0 0,-224.227 z"
         id="path3469" />
    </clipPath>
  </defs>
  <metadata
     id="metadata3516">
    <rdf:RDF>
      <cc:Work
         rdf:about="">
        <dc:format>image/svg+xml</dc:format>
        <dc:type
           rdf:resource="http://purl.org/dc/dcmitype/StillImage" />
        <dc:title></dc:title>
      </cc:Work>
    </rdf:RDF>
  </metadata>
  <g
     transform="translate(-168.43,-301.912)"
     id="layer1">
    <path
       d="m 284.35793,142.33615 a 133.8452,128.28938 0 1 1 -267.690404,0 133.8452,128.28938 0 1 1 267.690404,0 z"
       transform="matrix(0.97735849,0,0,1,161.73631,301.912)"
       id="path3018"
       style="fill:#ffffff;fill-opacity:1;stroke-width:5;stroke-miterlimit:4;stroke-dasharray:none" />
    <g
       transform="matrix(0,1.25,1.25,0,131.792,194.363)"
       id="g3463">
      <g
         clip-path="url(#clipPath3467)"
         id="g3465">
        <g
           id="g3471">
          <g
             clip-path="url(#clipPath3475)"
             id="g3473">
            <path
               d="m 133.58,183.5368 c -0.7242,-0.5831 1.1151,-4.0538 4.1062,-7.7505 2.9918,-3.6926 6.0032,-6.2099 6.7298,-5.6218 0.7233,0.5863 -1.1176,4.0545 -4.107,7.7479 -2.9959,3.6967 -6.0065,6.2115 -6.729,5.6244 z"
               id="path3479"
               style="fill:none;stroke:#231f20;stroke-width:0.98720002;stroke-linecap:butt;stroke-linejoin:miter;stroke-miterlimit:4;stroke-opacity:1;stroke-dasharray:none" />
            <path
               d="m 155.028,195.5962 6.421,-7.9257 -17.0037,-17.4668 c 0.6223,0.6764 -1.1983,4.0846 -4.1363,7.7087 -2.9959,3.6967 -6.0065,6.2115 -6.729,5.6244 l 21.5343,12.1294"
               id="path3481"
               style="fill:#231f20;fill-opacity:1;fill-rule:nonzero;stroke:none" />
            <path
               d="m 155.1208,195.6587 c -0.4521,-0.367 0.606,-2.4264 2.3671,-4.5934 1.7578,-2.1795 3.5514,-3.64 4.0059,-3.2738 0.4513,0.3678 -0.6044,2.4272 -2.3687,4.5992 -1.7562,2.1729 -3.5498,3.6325 -4.0043,3.268"
               id="path3483"
               style="fill:#231f20;fill-opacity:1;fill-rule:nonzero;stroke:none" />
            <path
               d="m 155.1208,195.6587 c -0.4521,-0.367 0.606,-2.4264 2.3671,-4.5934 1.7578,-2.1795 3.5514,-3.64 4.0059,-3.2738 0.4513,0.3678 -0.6044,2.4272 -2.3687,4.5992 -1.7562,2.1729 -3.5498,3.6325 -4.0043,3.268 z"
               id="path3485"
               style="fill:none;stroke:#231f20;stroke-width:0.1647;stroke-linecap:butt;stroke-linejoin:miter;stroke-miterlimit:4;stroke-opacity:1;stroke-dasharray:none" />
            <path
               d="m 136.997,100.5666 c 4.1265,-0.5283 22.5452,0.9786 30.9301,8.1666 2.0796,1.7818 3.1629,2.9744 3.6834,3.7336 0.198,-0.2408 0.5409,-0.4962 1.1103,-0.7405 4.1926,-1.7929 10.5818,-7.1628 18.7401,-13.4666 13.0095,-10.0527 21.4072,-11.8269 21.4072,-11.8269 0,0 1.0635,-0.3547 1.5373,0.3548 0.4729,0.7095 2.9635,2.0473 6.1364,7.5098 2.7209,3.7844 5.0113,9.1661 8.0558,18.0316 1.7391,5.0653 1.7616,16.7135 7.622,17.3691 10.4729,1.1711 16.3542,-8.1125 25.4926,-10.1135 11.2562,-2.4656 24.8253,5.3233 29.02,8.3185 1.885,1.3479 5.7119,1.3604 9.3519,0.9676 l 0.3729,30.5889 -4.2915,23.6042 c -9.3511,-4.2789 -19.2443,-10.6856 -19.2443,-10.6856 -19.5347,36.8747 -45.3425,21.3788 -58.5072,8.4502 -3.3047,-2.3179 -5.4992,-4.1229 -5.4992,-4.1229 0,0 0.7549,1.5089 1.2562,3.0169 0.5088,1.5106 0.8833,3.7701 1.3846,5.9121 0.5046,2.1386 0.4663,3.1387 -0.4121,4.3999 -0.8824,1.2578 -2.8618,1.7541 -4.8669,2.1395 -1.2353,0.2377 -7.4235,2.3897 -11.1928,3.268 -3.776,0.8824 -12.3289,2.3913 -16.6053,3.0169 -4.2739,0.6289 -10.1853,0.3828 -17.4772,1.388 -7.2984,1.0084 -10.6951,-1.6357 -11.4477,-1.5089 -0.7559,0.1209 -3.0188,-1.0085 -3.3967,-1.8893 -0.3763,-0.8783 0.3779,-1.634 0.3779,-1.634 0,0 -1.1354,-0.251 -1.3847,-1.5089 -0.25,-1.2561 0.3771,-1.7608 -0.5018,-2.0118 -0.8837,-0.2527 -1.0035,-1.7591 -0.5033,-2.7676 0.5033,-1.0051 2.6407,-0.7532 0.8797,-1.5089 -1.7602,-0.754 -1.7602,-2.2645 -2.0104,-3.6508 -0.2524,-1.3763 10.5615,-1.0018 10.5615,-1.0018 0,0 2.8966,0.0568 4.4035,1.3863 1.1388,1.0059 1.4312,2.3088 3.2712,4.2714 1.3628,1.453 2.1928,1.453 4.4019,1.7633 2.4924,0.3495 7.7957,-1.6357 13.0797,-2.3922 5.2807,-0.754 13.7093,-6.5377 13.7093,-6.5377 0,0 -1.1336,-1.508 -2.3881,-2.7692 -1.2578,-1.2578 -9.8123,-11.6949 -11.0676,-12.9527 -1.2612,-1.2561 -8.4278,-7.1682 -10.4417,-9.5596 -2.0119,-2.3864 -3.7225,-7.6913 -3.7225,-7.6913 -1.3309,-2.1303 -6.9253,-3.5924 -10.783,-2.795 -3.8626,0.7982 -5.0527,5.0905 -5.1577,7.7037 -0.211,5.2298 -1.3,6.2024 -2.0681,6.3909 -0.7698,0.1952 -4.4239,-0.3812 -4.4239,-0.3812 0,0 -0.3323,1.297 -0.72,1.4872 -0.3829,0.196 -1.538,-0.0434 -1.7766,-0.6239 -0.2387,-0.5714 -0.7225,-0.9133 -0.6264,-0.5714 0.0961,0.3303 -0.769,1.1953 -1.1518,1.3421 -0.3861,0.1435 -0.5767,-0.8157 -1.0572,-0.9142 -0.479,-0.0976 -1.1681,1.1411 -1.1681,1.1411 -0.2672,0.7999 -0.5377,2.4055 -1.608,2.6775 -1.0703,0.2685 -2.1414,-0.8058 -3.4814,-1.8776 -1.3423,-1.0727 -4.0222,-2.9461 -5.899,-2.6766 -1.8718,0.2669 -6.6955,0 -11.2521,-2.4148 -3.3226,-2.167 -4.1518,-2.7483 -7.2268,-6.3032 -3.061,-3.5391 -4.4416,-13.2247 -2.235,-22.4449 1.8172,-7.5944 12.417,-9.301 12.417,-9.301 -2.5137,-2.5138 -0.9319,-15.3312 16.3936,-17.7552 z m 72.6798,6.3265 c 0,0 -7.6069,9.0282 -10.5972,11.4287 0,0 2.3964,2.3939 4.7894,3.5891 2.398,1.1995 6.5877,3.5958 8.9883,4.1947 2.3938,0.6031 6.5885,1.1995 6.5885,1.1995 2.705,0.5822 2.529,0.2852 -1.7975,-5.3942 -4.7985,-4.8519 -7.3801,-13.1255 -7.9715,-15.0178 z m -60.8215,14.1145 c -2.1529,-0.6031 -8.2661,-1.7224 -8.2661,-1.7224 3.9033,0.709 6.233,6.4392 6.233,6.4392 0,0 1.269,1.4756 2.745,1.6883 1.4776,0.2101 5.9112,-0.6373 7.1778,-1.4764 1.2658,-0.8449 1.6927,-2.3238 1.6927,-2.3238 -1.7009,0.7957 -6.0522,-1.3996 -9.5824,-2.6049"
               id="path3487"
               style="fill:#231f20;fill-opacity:1;fill-rule:nonzero;stroke:none" />
            <path
               d="m 290.6071,196.5754 7.3651,-11.1961 -175.1516,-114.717 -7.3635,11.1936 175.15,114.7195"
               id="path3489"
               style="fill:#ed1c24;fill-opacity:1;fill-rule:nonzero;stroke:none" />
            <path
               d="m 91.1329,141.413 c 0,-59.8711 48.5309,-108.4013 108.3988,-108.4013 59.8667,0 108.3988,48.5302 108.3988,108.4013 0,59.8667 -48.5321,108.398 -108.3988,108.398 -59.8679,0 -108.3988,-48.5313 -108.3988,-108.398 z m 205.5423,0 c 0,-53.5665 -43.5793,-97.1442 -97.1435,-97.1442 -53.5648,0 -97.1433,43.5777 -97.1433,97.1442 0,53.5618 43.5785,97.1393 97.1433,97.1393 53.5642,0 97.1435,-43.5775 97.1435,-97.1393"
               id="path3491"
               style="fill:#ed1c24;fill-opacity:1;fill-rule:nonzero;stroke:none" />
            <path
               d="m 125.3644,117.1049 0.1662,0.9133 c 0,0 5.7011,-1.4513 8.7719,-0.4554 -1.8262,-1.2453 -6.6973,-1.2881 -8.9381,-0.4579"
               id="path3493"
               style="fill:#ffffff;fill-opacity:1;fill-rule:nonzero;stroke:none" />
            <path
               d="m 231.1332,126.6803 c 1.6124,0.5739 7.8081,2.7993 13.9695,1.5356 l -2.6807,2.5632 -7.2642,0.91 -5.0338,-2.2913 0.7557,-2.7859"
               id="path3495"
               style="fill:#231f20;fill-opacity:1;fill-rule:nonzero;stroke:none" />
          </g>
        </g>
      </g>
    </g>
  </g>
</svg>
